<mxfile host="Electron" modified="2024-06-04T12:26:43.219Z" agent="Mozilla/5.0 (Windows NT 10.0; Win64; x64) AppleWebKit/537.36 (KHTML, like Gecko) draw.io/24.4.13 Chrome/124.0.6367.207 Electron/30.0.6 Safari/537.36" etag="oFyR3aNjUcKV5gjNh_yI" version="24.4.13" type="device">
  <diagram id="kgpKYQtTHZ0yAKxKKP6v" name="Page-1">
    <mxGraphModel dx="1400" dy="828" grid="1" gridSize="10" guides="1" tooltips="1" connect="1" arrows="1" fold="1" page="1" pageScale="1" pageWidth="850" pageHeight="1100" math="0" shadow="0">
      <root>
        <mxCell id="0" />
        <mxCell id="1" parent="0" />
        <mxCell id="TR3HpXv-k49Oe98Kgcgv-10" value=":IU supprimer" style="shape=umlLifeline;participant=umlBoundary;perimeter=lifelinePerimeter;whiteSpace=wrap;html=1;container=1;collapsible=0;recursiveResize=0;verticalAlign=top;spacingTop=36;outlineConnect=0;" parent="1" vertex="1">
          <mxGeometry x="430" y="15" width="50" height="945" as="geometry" />
        </mxCell>
        <mxCell id="TR3HpXv-k49Oe98Kgcgv-21" value="" style="html=1;points=[];perimeter=orthogonalPerimeter;" parent="TR3HpXv-k49Oe98Kgcgv-10" vertex="1">
          <mxGeometry x="20" y="190" width="10" height="60" as="geometry" />
        </mxCell>
        <mxCell id="TR3HpXv-k49Oe98Kgcgv-12" value="enseignant" style="shape=umlLifeline;participant=umlActor;perimeter=lifelinePerimeter;whiteSpace=wrap;html=1;container=1;collapsible=0;recursiveResize=0;verticalAlign=top;spacingTop=36;outlineConnect=0;" parent="1" vertex="1">
          <mxGeometry x="240" y="20" width="20" height="960" as="geometry" />
        </mxCell>
        <mxCell id="TR3HpXv-k49Oe98Kgcgv-17" value="" style="html=1;points=[];perimeter=orthogonalPerimeter;" parent="TR3HpXv-k49Oe98Kgcgv-12" vertex="1">
          <mxGeometry x="5" y="170" width="10" height="50" as="geometry" />
        </mxCell>
        <mxCell id="TR3HpXv-k49Oe98Kgcgv-13" value="controller" style="shape=umlLifeline;participant=umlControl;perimeter=lifelinePerimeter;whiteSpace=wrap;html=1;container=1;collapsible=0;recursiveResize=0;verticalAlign=top;spacingTop=36;outlineConnect=0;" parent="1" vertex="1">
          <mxGeometry x="640" y="20" width="40" height="960" as="geometry" />
        </mxCell>
        <mxCell id="TR3HpXv-k49Oe98Kgcgv-14" value="cours" style="shape=umlLifeline;participant=umlEntity;perimeter=lifelinePerimeter;whiteSpace=wrap;html=1;container=1;collapsible=0;recursiveResize=0;verticalAlign=top;spacingTop=36;outlineConnect=0;" parent="1" vertex="1">
          <mxGeometry x="830" y="20" width="40" height="960" as="geometry" />
        </mxCell>
        <mxCell id="TR3HpXv-k49Oe98Kgcgv-15" value="Ref" style="shape=umlFrame;whiteSpace=wrap;html=1;" parent="1" vertex="1">
          <mxGeometry x="200" y="110" width="760" height="70" as="geometry" />
        </mxCell>
        <mxCell id="TR3HpXv-k49Oe98Kgcgv-16" value="&amp;nbsp;Sequence Diagramme : Gérer cours / Diagramme seq Consulter cours" style="text;html=1;strokeColor=none;fillColor=none;align=center;verticalAlign=middle;whiteSpace=wrap;rounded=0;" parent="1" vertex="1">
          <mxGeometry x="310" y="110" width="460" height="50" as="geometry" />
        </mxCell>
        <mxCell id="TR3HpXv-k49Oe98Kgcgv-22" value="clik button supprimer" style="html=1;verticalAlign=bottom;endArrow=block;entryX=-0.533;entryY=0.107;rounded=0;entryDx=0;entryDy=0;entryPerimeter=0;" parent="1" target="TR3HpXv-k49Oe98Kgcgv-21" edge="1">
          <mxGeometry relative="1" as="geometry">
            <mxPoint x="260" y="210" as="sourcePoint" />
          </mxGeometry>
        </mxCell>
        <mxCell id="TR3HpXv-k49Oe98Kgcgv-23" value="&amp;nbsp;message confirmation affiché" style="html=1;verticalAlign=bottom;endArrow=open;dashed=1;endSize=8;exitX=-0.422;exitY=0.626;rounded=0;exitDx=0;exitDy=0;exitPerimeter=0;" parent="1" source="TR3HpXv-k49Oe98Kgcgv-21" target="TR3HpXv-k49Oe98Kgcgv-12" edge="1">
          <mxGeometry x="-0.0753" y="-10" relative="1" as="geometry">
            <mxPoint x="420" y="296" as="targetPoint" />
            <Array as="points">
              <mxPoint x="340" y="244" />
            </Array>
            <mxPoint as="offset" />
          </mxGeometry>
        </mxCell>
        <mxCell id="la1c6U8TuOXFLfayzTUi-1" value="frame" style="shape=umlFrame;whiteSpace=wrap;html=1;" parent="1" vertex="1">
          <mxGeometry x="200" y="290" width="770" height="370" as="geometry" />
        </mxCell>
        <mxCell id="la1c6U8TuOXFLfayzTUi-2" value="[succés]" style="text;html=1;strokeColor=none;fillColor=none;align=center;verticalAlign=middle;whiteSpace=wrap;rounded=0;" parent="1" vertex="1">
          <mxGeometry x="200" y="330" width="60" height="30" as="geometry" />
        </mxCell>
        <mxCell id="la1c6U8TuOXFLfayzTUi-3" value="" style="endArrow=none;dashed=1;html=1;rounded=0;" parent="1" edge="1">
          <mxGeometry width="50" height="50" relative="1" as="geometry">
            <mxPoint x="970" y="476" as="sourcePoint" />
            <mxPoint x="200" y="474" as="targetPoint" />
            <Array as="points">
              <mxPoint x="970" y="476" />
              <mxPoint x="930" y="476" />
              <mxPoint x="870" y="476" />
              <mxPoint x="730" y="476" />
              <mxPoint x="520" y="476" />
            </Array>
          </mxGeometry>
        </mxCell>
        <mxCell id="la1c6U8TuOXFLfayzTUi-5" value="confirmation suppression&amp;nbsp;" style="html=1;verticalAlign=bottom;endArrow=block;rounded=0;entryX=0.325;entryY=0.189;entryDx=0;entryDy=0;entryPerimeter=0;" parent="1" target="la1c6U8TuOXFLfayzTUi-1" edge="1">
          <mxGeometry width="80" relative="1" as="geometry">
            <mxPoint x="240" y="360" as="sourcePoint" />
            <mxPoint x="320" y="360" as="targetPoint" />
          </mxGeometry>
        </mxCell>
        <mxCell id="la1c6U8TuOXFLfayzTUi-6" value="demande de suppression envoyée" style="html=1;verticalAlign=bottom;endArrow=block;rounded=0;entryX=0.597;entryY=0.216;entryDx=0;entryDy=0;entryPerimeter=0;" parent="1" target="la1c6U8TuOXFLfayzTUi-1" edge="1">
          <mxGeometry width="80" relative="1" as="geometry">
            <mxPoint x="450" y="370" as="sourcePoint" />
            <mxPoint x="530" y="370" as="targetPoint" />
          </mxGeometry>
        </mxCell>
        <mxCell id="la1c6U8TuOXFLfayzTUi-9" value="" style="html=1;points=[];perimeter=orthogonalPerimeter;" parent="1" vertex="1">
          <mxGeometry x="450" y="340" width="10" height="40" as="geometry" />
        </mxCell>
        <mxCell id="la1c6U8TuOXFLfayzTUi-10" value="" style="html=1;points=[];perimeter=orthogonalPerimeter;" parent="1" vertex="1">
          <mxGeometry x="655" y="360" width="10" height="30" as="geometry" />
        </mxCell>
        <mxCell id="la1c6U8TuOXFLfayzTUi-11" value="&amp;nbsp;envoyer réquette supprimer (id)" style="html=1;verticalAlign=bottom;endArrow=block;rounded=0;entryX=0.844;entryY=0.243;entryDx=0;entryDy=0;entryPerimeter=0;" parent="1" target="la1c6U8TuOXFLfayzTUi-1" edge="1">
          <mxGeometry width="80" relative="1" as="geometry">
            <mxPoint x="660" y="380" as="sourcePoint" />
            <mxPoint x="740" y="380" as="targetPoint" />
          </mxGeometry>
        </mxCell>
        <mxCell id="la1c6U8TuOXFLfayzTUi-12" value="" style="html=1;points=[];perimeter=orthogonalPerimeter;" parent="1" vertex="1">
          <mxGeometry x="845" y="400" width="10" height="20" as="geometry" />
        </mxCell>
        <mxCell id="la1c6U8TuOXFLfayzTUi-13" value="&amp;nbsp;exécution requéte supprimer cours (id)" style="edgeStyle=orthogonalEdgeStyle;html=1;align=left;spacingLeft=2;endArrow=block;rounded=0;entryX=1;entryY=0;" parent="1" target="la1c6U8TuOXFLfayzTUi-12" edge="1">
          <mxGeometry relative="1" as="geometry">
            <mxPoint x="850" y="380" as="sourcePoint" />
            <Array as="points">
              <mxPoint x="880" y="380" />
            </Array>
          </mxGeometry>
        </mxCell>
        <mxCell id="la1c6U8TuOXFLfayzTUi-14" value="réponse requete&amp;nbsp;" style="html=1;verticalAlign=bottom;endArrow=open;dashed=1;endSize=8;rounded=0;exitX=0.5;exitY=1;exitDx=0;exitDy=0;exitPerimeter=0;entryX=0.597;entryY=0.351;entryDx=0;entryDy=0;entryPerimeter=0;" parent="1" source="la1c6U8TuOXFLfayzTUi-12" target="la1c6U8TuOXFLfayzTUi-1" edge="1">
          <mxGeometry relative="1" as="geometry">
            <mxPoint x="790" y="418" as="sourcePoint" />
            <mxPoint x="710" y="418" as="targetPoint" />
            <Array as="points" />
          </mxGeometry>
        </mxCell>
        <mxCell id="la1c6U8TuOXFLfayzTUi-15" value="suppression réussir" style="html=1;verticalAlign=bottom;endArrow=open;dashed=1;endSize=8;rounded=0;entryX=0.338;entryY=0.351;entryDx=0;entryDy=0;entryPerimeter=0;startArrow=none;" parent="1" edge="1">
          <mxGeometry relative="1" as="geometry">
            <mxPoint x="655" y="430.87" as="sourcePoint" />
            <mxPoint x="460.26" y="430.87" as="targetPoint" />
          </mxGeometry>
        </mxCell>
        <mxCell id="la1c6U8TuOXFLfayzTUi-17" value="" style="html=1;verticalAlign=bottom;endArrow=none;dashed=1;endSize=8;rounded=0;entryX=0.338;entryY=0.351;entryDx=0;entryDy=0;entryPerimeter=0;" parent="1" target="la1c6U8TuOXFLfayzTUi-16" edge="1">
          <mxGeometry relative="1" as="geometry">
            <mxPoint x="660" y="420" as="sourcePoint" />
            <mxPoint x="460.26" y="419.87" as="targetPoint" />
          </mxGeometry>
        </mxCell>
        <mxCell id="la1c6U8TuOXFLfayzTUi-16" value="" style="html=1;points=[];perimeter=orthogonalPerimeter;" parent="1" vertex="1">
          <mxGeometry x="655" y="410" width="10" height="30" as="geometry" />
        </mxCell>
        <mxCell id="la1c6U8TuOXFLfayzTUi-18" value="" style="html=1;points=[];perimeter=orthogonalPerimeter;" parent="1" vertex="1">
          <mxGeometry x="450" y="420" width="10" height="40" as="geometry" />
        </mxCell>
        <mxCell id="la1c6U8TuOXFLfayzTUi-19" value="rédirection vers la page ( liste cours)" style="html=1;verticalAlign=bottom;endArrow=open;dashed=1;endSize=8;rounded=0;entryX=0.078;entryY=0.432;entryDx=0;entryDy=0;entryPerimeter=0;" parent="1" target="la1c6U8TuOXFLfayzTUi-1" edge="1">
          <mxGeometry relative="1" as="geometry">
            <mxPoint x="450" y="450" as="sourcePoint" />
            <mxPoint x="370" y="450" as="targetPoint" />
          </mxGeometry>
        </mxCell>
        <mxCell id="la1c6U8TuOXFLfayzTUi-20" value="[échec]" style="text;html=1;strokeColor=none;fillColor=none;align=center;verticalAlign=middle;whiteSpace=wrap;rounded=0;" parent="1" vertex="1">
          <mxGeometry x="190" y="500" width="60" height="30" as="geometry" />
        </mxCell>
        <mxCell id="la1c6U8TuOXFLfayzTUi-21" value="" style="html=1;points=[];perimeter=orthogonalPerimeter;" parent="1" vertex="1">
          <mxGeometry x="245" y="355" width="10" height="40" as="geometry" />
        </mxCell>
        <mxCell id="la1c6U8TuOXFLfayzTUi-22" value="" style="html=1;points=[];perimeter=orthogonalPerimeter;" parent="1" vertex="1">
          <mxGeometry x="250" y="420" width="10" height="40" as="geometry" />
        </mxCell>
        <mxCell id="la1c6U8TuOXFLfayzTUi-23" value="" style="html=1;points=[];perimeter=orthogonalPerimeter;" parent="1" vertex="1">
          <mxGeometry x="245" y="495" width="10" height="40" as="geometry" />
        </mxCell>
        <mxCell id="la1c6U8TuOXFLfayzTUi-24" value="annuler la suppression&amp;nbsp;" style="html=1;verticalAlign=bottom;endArrow=block;rounded=0;entryX=0.325;entryY=0.189;entryDx=0;entryDy=0;entryPerimeter=0;" parent="1" edge="1">
          <mxGeometry width="80" relative="1" as="geometry">
            <mxPoint x="250" y="519" as="sourcePoint" />
            <mxPoint x="460.25" y="518.9300000000001" as="targetPoint" />
          </mxGeometry>
        </mxCell>
        <mxCell id="la1c6U8TuOXFLfayzTUi-25" value="affiche la page de consultation des cours&amp;nbsp;" style="html=1;verticalAlign=bottom;endArrow=open;dashed=1;endSize=8;exitX=-0.422;exitY=0.626;rounded=0;exitDx=0;exitDy=0;exitPerimeter=0;" parent="1" edge="1">
          <mxGeometry x="-0.0753" y="-10" relative="1" as="geometry">
            <mxPoint x="259.5" y="562" as="targetPoint" />
            <Array as="points">
              <mxPoint x="350" y="562" />
            </Array>
            <mxPoint as="offset" />
            <mxPoint x="455.78" y="560.56" as="sourcePoint" />
          </mxGeometry>
        </mxCell>
        <mxCell id="la1c6U8TuOXFLfayzTUi-26" value="" style="html=1;points=[];perimeter=orthogonalPerimeter;" parent="1" vertex="1">
          <mxGeometry x="450" y="520" width="10" height="40" as="geometry" />
        </mxCell>
        <mxCell id="la1c6U8TuOXFLfayzTUi-27" value="" style="html=1;points=[];perimeter=orthogonalPerimeter;" parent="1" vertex="1">
          <mxGeometry x="245" y="540" width="10" height="40" as="geometry" />
        </mxCell>
      </root>
    </mxGraphModel>
  </diagram>
</mxfile>
